inDegrees=yes
name=ik_coleta2_trike_1hz_mov
DataType=double
version=3
OpenSimVersion=4.4-2022-07-23-0e9fedc
endheader
time	hip_flexion_r	knee_angle_r	hip_flexion_l	knee_angle_l	gearToGround_coord_0
30.00837397575378	92.39540370367543	-96.24401214349386	104.8101717405005	-78.67301649824424	-194.1614017985322
30.02038288116455	92.80981461920915	-96.83689029015608	104.442266363775	-78.40530665993788	-195.4628995793493
30.02932000160217	93.23678292482225	-97.43609076776613	103.9599349149929	-77.80563494834502	-196.773905130696
30.03432583808899	93.67669654233043	-98.04117356177653	103.4818363509997	-77.15116815931185	-198.1112438301375
30.03935980796814	94.12579661680634	-98.64640820643669	102.8526742494154	-76.30549390160101	-199.4644722458484
30.04434490203857	94.58903346135452	-99.25778190267245	102.3804352379092	-75.90876371338479	-200.8428495861619
30.04831409454346	95.06807467418244	-99.87651102269828	101.845999526543	-75.21199666779832	-202.2535303288285
30.05335378646851	95.55851607363192	-100.4961244240022	101.2150653345991	-74.57885711364808	-203.6790688054142
30.05733585357666	96.07042795265191	-101.1282009174812	100.6725632021428	-73.93412861566114	-205.1514156901214
30.09632802009583	96.59599464119634	-101.7618738044134	100.1015360341661	-73.26421789236421	-206.644464020635
30.11035418510437	97.13818238429171	-102.3997018732095	99.47053995678314	-72.58132636406965	-208.1712060588473
30.1163330078125	97.69993394531325	-103.0440572153044	98.73721428055315	-71.57120757784442	-209.7382262312492
30.12137794494629	98.27815182932702	-103.6899577566028	98.23361914108588	-71.20629928092312	-211.3335969213792
30.12634801864624	98.88005153463214	-104.3441159438526	97.61608342730179	-70.50020651123569	-212.9753947257546
30.13134098052979	99.49727711776985	-104.9958311933451	96.91699683517166	-69.63809288094158	-214.6488507408692
30.13531994819641	100.1364552508435	-105.6509266354874	96.22018018849992	-68.87507312680455	-216.3649454766925
30.14137601852417	100.8013690164768	-106.3113212013408	95.59010018506301	-68.26086571270514	-218.135888311931
30.14631795883179	101.4727818356399	-106.9566763214216	94.90453518108883	-67.67788130234807	-219.9079927593529
30.15635800361633	102.174610506906	-107.6085803454156	94.2417851349888	-66.95256733072871	-221.751951762504
30.16532707214355	102.8940362214094	-108.253168074739	93.35325684396125	-65.89268248685431	-223.6321885425029
30.17032790184021	103.633749016776	-108.8911459451084	92.78719066458625	-65.56127881065642	-225.553427063273
30.17436575889587	104.3916556810121	-109.518897420943	92.05217843895805	-64.70247772561382	-227.5163914520822
30.18032002449036	105.1604585652125	-110.1291098445108	91.38513613490599	-64.14567368031821	-229.5022627052543
30.18836092948914	105.9597809950296	-110.7355952046455	90.64926401587873	-63.5300107005622	-231.5633773449727
30.19334697723389	106.7665205292567	-111.3184604339918	89.92629798089875	-62.81161095902176	-233.6460113897234
30.20032978057861	107.5865165598332	-111.8808009043317	89.18981889491477	-62.25297884051842	-235.7669046778292
30.2053759098053	108.4140272288129	-112.4172814741047	88.40551359182311	-61.59395765621964	-237.9192816984504
30.20933794975281	109.2549813131425	-112.93010067025	87.77764979671512	-61.00517809331337	-240.117153372453
30.21632719039917	110.0999410554919	-113.4118352534836	87.04113907804351	-60.3756179524948	-242.3471741308984
30.22336506843567	110.9488557805352	-113.8610447300825	86.35244964485292	-60.0116229637223	-244.6133421192501
30.22732090950012	111.7990260776242	-114.2747436611441	85.41865602915551	-59.16790705608014	-246.9154343379612
30.23232197761536	112.6467482769948	-114.6495459832952	84.99701829233842	-59.09779517971883	-249.253037661064
30.23632407188416	113.4911998942359	-114.9833526533034	84.34026073941835	-58.70216667058037	-251.6341082032588
30.24233889579773	114.3288107493346	-115.2728379062407	83.79780312432264	-58.41167644092494	-254.055913359213
30.24632382392883	115.1571462737484	-115.5148713976734	83.1893519323108	-58.14308233021782	-256.5243532332244
30.2513279914856	115.9724255318671	-115.7058359819918	82.61894058905956	-57.88145172202243	-259.04376833481
30.25835680961609	116.7729025021237	-115.8422481267078	82.03267289544198	-57.62907279844168	-261.6213244769113
30.26432704925537	117.5522796686155	-115.9194380392042	81.53061138604613	-57.67921102868752	-264.2566449272819
30.27233910560608	118.3092151074037	-115.9328817474251	80.89658813079581	-57.3124758003495	-266.967403433462
30.27831792831421	119.0379951962108	-115.8767696868383	80.52992824673537	-57.53648859813436	-269.7592447490302
30.28432607650757	119.7329618128727	-115.7445413755561	80.1281305705087	-57.7345088829783	-272.6423091050133
30.28941297531128	120.387455600437	-115.5286108432167	79.71774141069038	-57.92961624976832	-275.6284613991506
30.29431700706482	120.9924393042415	-115.2208323679937	79.30603532929068	-58.15793787393978	-278.724866346133
30.3043360710144	121.5370939014787	-114.8132743851984	78.89564686140734	-58.46167146156195	-281.9340721249317
30.30834698677063	122.0081920305306	-114.3002644245612	78.62365991193218	-59.0102689554816	-285.2450997069072
30.31332397460938	122.3918753218902	-113.6821664413876	78.47987627470573	-59.73433314754505	-288.6267571050325
30.31832003593445	122.6750043928287	-112.9734554027627	78.32873146426191	-60.57974239177983	-292.00162077206
30.32831311225891	122.8555149952533	-112.1906658652283	78.31465120467392	-61.39913798910278	-295.3200137717037
30.33634090423584	122.9368718684673	-111.3790562872589	78.64208221477425	-62.80861499803409	-298.4430437620091
30.34334206581116	122.9364070754977	-110.5737303553546	78.49383928235518	-63.28409542170631	-301.3091798575962
30.34730887413025	122.8755608164552	-109.8022361792972	78.5711246431331	-64.11728273057636	-303.8889323603411
30.35232710838318	122.7745553746599	-109.083423693724	78.6419799496001	-64.87584932331148	-306.1657404024304
30.3573842048645	122.9367625506079	-108.6323221493211	78.73769484095257	-65.64099291953879	-308.1388471924984
30.3643159866333	122.7921981738322	-108.0060427060867	78.89783569728132	-66.27071729075932	-309.9504975518541
